<?xml version="1.0" encoding="utf-8"?>
<!-- Generator: Adobe Illustrator 19.2.1, SVG Export Plug-In . SVG Version: 6.00 Build 0)  -->
<svg version="1.1" id="Layer_1" xmlns="http://www.w3.org/2000/svg" xmlns:xlink="http://www.w3.org/1999/xlink" x="0px" y="0px"
	 viewBox="0 0 40 40" style="enable-background:new 0 0 40 40;" xml:space="preserve">
<style type="text/css">
	.st0{fill:#1E1E1E;}
</style>
<g>
	<path class="st0" d="M22.5,36.4c-0.3,0-0.5,0.2-0.7,0.4l0,0l-0.8,1.5l0,0c0,0.1-0.1,0.2-0.1,0.3c0,0.4,0.3,0.7,0.7,0.7
		c0.3,0,0.5-0.2,0.7-0.4l0,0l0.7-1.5l0,0c0.1-0.1,0.1-0.2,0.1-0.3C23.2,36.7,22.9,36.4,22.5,36.4z"/>
	<path class="st0" d="M29.7,36.4c-0.3,0-0.5,0.2-0.7,0.4l0,0l-0.8,1.5l0,0c0,0.1-0.1,0.2-0.1,0.3c0,0.4,0.3,0.7,0.7,0.7
		c0.3,0,0.5-0.2,0.7-0.4l0,0l0.7-1.5l0,0c0.1-0.1,0.1-0.2,0.1-0.3C30.5,36.7,30.1,36.4,29.7,36.4z"/>
	<path class="st0" d="M21.5,33.8c0.1-0.1,0.1-0.2,0.1-0.3c0-0.4-0.3-0.7-0.7-0.7c-0.3,0-0.5,0.2-0.7,0.4l0,0l-0.8,1.5l0,0
		c0,0.1-0.1,0.2-0.1,0.3c0,0.4,0.3,0.7,0.7,0.7c0.3,0,0.5-0.2,0.7-0.4l0,0L21.5,33.8L21.5,33.8z"/>
	<path class="st0" d="M28.7,33.8c0.1-0.1,0.1-0.2,0.1-0.3c0-0.4-0.3-0.7-0.7-0.7c-0.3,0-0.5,0.2-0.7,0.4l0,0l-0.8,1.5l0,0
		c0,0.1-0.1,0.2-0.1,0.3c0,0.4,0.3,0.7,0.7,0.7c0.3,0,0.5-0.2,0.7-0.4l0,0L28.7,33.8L28.7,33.8z"/>
	<path class="st0" d="M15.3,36.4c-0.3,0-0.5,0.2-0.7,0.4l0,0l-0.8,1.5l0,0c0,0.1-0.1,0.2-0.1,0.3c0,0.4,0.3,0.7,0.7,0.7
		c0.3,0,0.5-0.2,0.7-0.4l0,0l0.7-1.5l0,0c0.1-0.1,0.1-0.2,0.1-0.3C16,36.7,15.7,36.4,15.3,36.4z"/>
	<path class="st0" d="M8,36.4c-0.3,0-0.5,0.2-0.7,0.4l0,0l-0.8,1.5l0,0c0,0.1-0.1,0.2-0.1,0.3c0,0.4,0.3,0.7,0.7,0.7
		c0.3,0,0.5-0.2,0.7-0.4l0,0l0.7-1.5l0,0c0.1-0.1,0.1-0.2,0.1-0.3C8.7,36.7,8.4,36.4,8,36.4z"/>
	<path class="st0" d="M14.2,33.8c0.1-0.1,0.1-0.2,0.1-0.3c0-0.4-0.3-0.7-0.7-0.7c-0.3,0-0.5,0.2-0.7,0.4l0,0l-0.8,1.5l0,0
		c0,0.1-0.1,0.2-0.1,0.3c0,0.4,0.3,0.7,0.7,0.7c0.3,0,0.5-0.2,0.7-0.4l0,0L14.2,33.8L14.2,33.8z"/>
	<path class="st0" d="M29.4,12.7c-0.5,0-1,0-1.5,0.1C26.7,8.8,22.9,6,18.5,6c-5.5,0-10,4.5-10,10c0,0.4,0,0.7,0.1,1.1
		c-2.7,0.8-4.7,3.4-4.7,6.3c0,3.6,2.9,6.5,6.5,6.5h19c4.7,0,8.6-3.8,8.6-8.6S34.2,12.7,29.4,12.7z M29.4,28.1h-19
		c-2.7,0-4.8-2.2-4.8-4.8c0-2.4,1.8-4.4,4.1-4.7l0.9-0.1l-0.2-0.9c-0.1-0.5-0.2-1.1-0.2-1.6c0-4.5,3.7-8.2,8.2-8.2
		c3.8,0,7.1,2.6,8,6.3l0.2,0.9l0.9-0.2c0.6-0.2,1.2-0.3,1.8-0.3c3.8,0,6.8,3.1,6.8,6.8C36.3,25.1,33.2,28.1,29.4,28.1z"/>
</g>
</svg>
