<?xml version="1.0" encoding="utf-8"?>
<!-- Generator: Adobe Illustrator 21.1.0, SVG Export Plug-In . SVG Version: 6.00 Build 0)  -->
<svg version="1.1" id="Layer_1" xmlns="http://www.w3.org/2000/svg" xmlns:xlink="http://www.w3.org/1999/xlink" x="0px" y="0px"
	 viewBox="0 0 98.6 28" style="enable-background:new 0 0 98.6 28;" xml:space="preserve">
<g id="Shape_1_1_">
	<g>
		<path style="fill:#1E1E1E;" d="M34.3,7.5h-3.2v13.1h3.2c1.9,0,3-1.1,3-3.2v-6.8C37.4,8.6,36.3,7.5,34.3,7.5z M35.6,17.6
			c0,1-0.4,1.4-1.2,1.4H33V9h1.4c0.8,0,1.2,0.5,1.2,1.4C35.6,10.4,35.6,17.6,35.6,17.6z M44.6,7.3c-1.9,0-3,1.1-3,3.2v6.9
			c0,2.1,1.1,3.2,3,3.2s3-1.1,3-3.2v-6.9C47.7,8.5,46.6,7.3,44.6,7.3z M45.8,17.6c0,1.2-0.7,1.4-1.2,1.4s-1.2-0.2-1.2-1.4v-7.2
			c0-1.2,0.7-1.4,1.2-1.4s1.2,0.2,1.2,1.4V17.6z M67.9,7.3c-1.9,0-3,1.1-3,3.2v6.9c0,2.1,1.1,3.2,3,3.2s3-1.1,3-3.2v-6.9
			C71,8.5,69.8,7.3,67.9,7.3z M69.2,17.6c0,1.2-0.7,1.4-1.2,1.4s-1.2-0.2-1.2-1.4v-7.2C66.8,9.2,67.5,9,68,9s1.2,0.2,1.2,1.4V17.6z
			 M78.8,13.4c-0.9-0.8-1.8-1.7-1.8-3c0-1,0.4-1.4,1.2-1.4s1.2,0.5,1.2,1.4v0.4H81v-0.2c0-2.1-1-3.2-3-3.2s-3,1.1-3,3.2
			c0,2,1.1,3,2.2,4c0.9,0.8,1.8,1.7,1.8,3c0,1-0.5,1.4-1.2,1.4c-0.8,0-1.2-0.5-1.2-1.4v-0.8H75v0.6c0,2.1,1,3.2,3,3.2s3-1.1,3-3.2
			C81,15.6,79.9,14.5,78.8,13.4z M79.9,4.6h-1.5l-1.1,1.8h1L79.9,4.6z M88.2,7.3c-1.9,0-3,1.1-3,3.2v6.9c0,2.1,1,3.2,3,3.2
			s3-1.1,3-3.2v-1.6h-1.6v1.8c0,1-0.5,1.4-1.2,1.4s-1.2-0.5-1.2-1.4v-7.2c0-1.2,0.7-1.4,1.2-1.4s1.2,0.2,1.2,1.4v1.2h1.6v-1.1
			C91.2,8.4,90.2,7.3,88.2,7.3z M95.5,7.5v13.1h1.8V7.5H95.5z M14.1,20.6h1.8V7.5h-1.8V20.6z M22.1,7.5L20,20.6h1.5l0.4-2.4h2.9
			l0.4,2.4H27L24.9,7.5H22.1z M22.2,16.6l1.2-8.2l1.2,8.2H22.2z M56.3,17.8L54.6,7.5h-2.7v13.1h1.4V9.2l1.9,11.4H57l2-11.4v11.4h1.4
			V7.5h-2.6L56.3,17.8z M7.1,19.5l-1.2-12H4.1L3,19.5l-1.3-12H0.2l1.4,13.1h2.5L5,11.8l1,8.8h2.5L10,7.5H8.5L7.1,19.5z"/>
	</g>
</g>
</svg>
